{
	"asset":{
		"generator":"Khronos glTF Blender I/O v4.5.47",
		"version":"2.0"
	},
	"extensionsUsed":[
		"KHR_materials_specular"
	],
	"scene":0,
	"scenes":[
		{
			"name":"Scene",
			"nodes":[
				0,
				1,
				2,
				3,
				4,
				5,
				6,
				7,
				8,
				9,
				10
			]
		}
	],
	"nodes":[
		{
			"mesh":0,
			"name":"genie_body_1"
		},
		{
			"mesh":1,
			"name":"goggle_frame_1",
			"rotation":[
				0.4835418164730072,
				-0.5159334540367126,
				0.5159333944320679,
				0.4835418462753296
			],
			"scale":[
				0.9295315146446228,
				0.9295315146446228,
				0.9295313954353333
			],
			"translation":[
				-0.004031545482575893,
				0.17156386375427246,
				0.12109522521495819
			]
		},
		{
			"mesh":2,
			"name":"belt_1",
			"rotation":[
				1,
				0,
				0,
				0
			],
			"scale":[
				0.003491889452561736,
				0.005319593008607626,
				0.0014267123769968748
			],
			"translation":[
				-0.0026224253233522177,
				0.17268484830856323,
				-0.001476471545174718
			]
		},
		{
			"mesh":3,
			"name":"goggle_outer_frame_1",
			"rotation":[
				0.4835418164730072,
				-0.5159334540367126,
				0.5159333944320679,
				0.4835418462753296
			],
			"scale":[
				0.9295315146446228,
				0.9295315146446228,
				0.9295313954353333
			],
			"translation":[
				-0.004031545482575893,
				0.17156386375427246,
				0.12109522521495819
			]
		},
		{
			"mesh":4,
			"name":"goggle_outer_frame_2",
			"rotation":[
				0.7071068286895752,
				0,
				0,
				0.7071068286895752
			],
			"scale":[
				1.6954138278961182,
				1.6954138278961182,
				1.6954138278961182
			],
			"translation":[
				0,
				0.12318912893533707,
				0.13872620463371277
			]
		},
		{
			"mesh":5,
			"name":"goggle_outer_glass_2",
			"rotation":[
				0.7071068286895752,
				0,
				0,
				0.7071068286895752
			],
			"scale":[
				1.6954138278961182,
				1.6954138278961182,
				1.6954138278961182
			],
			"translation":[
				0,
				0.12318912893533707,
				0.13872620463371277
			]
		},
		{
			"mesh":6,
			"name":"belt_3",
			"rotation":[
				1,
				0,
				0,
				0
			],
			"scale":[
				0.0034524337388575077,
				0.00525948591530323,
				0.0014105916488915682
			],
			"translation":[
				-0.0026224253233522177,
				0.18842938542366028,
				-0.001476471545174718
			]
		},
		{
			"mesh":7,
			"name":"goggle_left_mota_belt",
			"rotation":[
				-0.33712562918663025,
				0.6215676069259644,
				0.6042748689651489,
				0.3672218918800354
			],
			"scale":[
				0.00010771526285680011,
				0.0001077152555808425,
				0.0001077152555808425
			],
			"translation":[
				-0.07723603397607803,
				0.17420071363449097,
				0.016051936894655228
			]
		},
		{
			"mesh":8,
			"name":"goggle_outer_glass",
			"rotation":[
				0.48322340846061707,
				0.47254499793052673,
				-0.5152961015701294,
				0.5269407033920288
			],
			"scale":[
				0.0001077152555808425,
				0.0001077152555808425,
				0.00010771526285680011
			],
			"translation":[
				0.03602404519915581,
				0.1947265863418579,
				0.03216249868273735
			]
		},
		{
			"mesh":9,
			"name":"goggle_inner_glass",
			"rotation":[
				0.48322340846061707,
				0.47254499793052673,
				-0.5152961015701294,
				0.5269407033920288
			],
			"scale":[
				0.0001077152555808425,
				0.0001077152555808425,
				0.00010771526285680011
			],
			"translation":[
				0.03602404519915581,
				0.1947265863418579,
				0.03216249868273735
			]
		},
		{
			"mesh":10,
			"name":"goggle_right_mota_belt",
			"rotation":[
				0.6131058931350708,
				0.3522799015045166,
				-0.3522798717021942,
				0.6131059527397156
			],
			"scale":[
				0.00010771526285680011,
				0.00010771526285680011,
				0.00010771526285680011
			],
			"translation":[
				0.08171776682138443,
				0.20057354867458344,
				0.0270690880715847
			]
		}
	],
	"materials":[
		{
			"name":"Material_0",
			"pbrMetallicRoughness":{
				"metallicFactor":0.20000000298023224,
				"roughnessFactor":0.5
			}
		},
		{
			"doubleSided":true,
			"extensions":{
				"KHR_materials_specular":{
					"specularFactor":0
				}
			},
			"name":"frame",
			"pbrMetallicRoughness":{
				"baseColorFactor":[
					0.800000011920929,
					0.800000011920929,
					0.800000011920929,
					1
				],
				"metallicFactor":0
			}
		},
		{
			"doubleSided":true,
			"extensions":{
				"KHR_materials_specular":{
					"specularFactor":0
				}
			},
			"name":"glass",
			"pbrMetallicRoughness":{
				"baseColorFactor":[
					0.800000011920929,
					0.800000011920929,
					0.800000011920929,
					1
				],
				"metallicFactor":0
			}
		},
		{
			"doubleSided":true,
			"extensions":{
				"KHR_materials_specular":{
					"specularFactor":0
				}
			},
			"name":"Background",
			"pbrMetallicRoughness":{
				"baseColorFactor":[
					0.800000011920929,
					0.800000011920929,
					0.800000011920929,
					1
				],
				"metallicFactor":0
			}
		},
		{
			"doubleSided":true,
			"extensions":{
				"KHR_materials_specular":{
					"specularFactor":0
				}
			},
			"name":"Lense",
			"pbrMetallicRoughness":{
				"baseColorFactor":[
					0.800000011920929,
					0.800000011920929,
					0.800000011920929,
					1
				],
				"metallicFactor":0
			}
		},
		{
			"doubleSided":true,
			"extensions":{
				"KHR_materials_specular":{
					"specularFactor":0
				}
			},
			"name":"02___Default",
			"pbrMetallicRoughness":{
				"baseColorFactor":[
					0.800000011920929,
					0.800000011920929,
					0.800000011920929,
					1
				],
				"metallicFactor":0
			}
		},
		{
			"doubleSided":true,
			"extensions":{
				"KHR_materials_specular":{
					"specularFactor":0
				}
			},
			"name":"03___Default",
			"pbrMetallicRoughness":{
				"baseColorFactor":[
					0.800000011920929,
					0.800000011920929,
					0.800000011920929,
					1
				],
				"metallicFactor":0
			}
		},
		{
			"doubleSided":true,
			"extensions":{
				"KHR_materials_specular":{
					"specularFactor":0
				}
			},
			"name":"02___Default.001",
			"pbrMetallicRoughness":{
				"baseColorFactor":[
					0.800000011920929,
					0.800000011920929,
					0.800000011920929,
					1
				],
				"metallicFactor":0
			}
		}
	],
	"meshes":[
		{
			"name":"mesh",
			"primitives":[
				{
					"attributes":{
						"POSITION":0,
						"NORMAL":1
					},
					"indices":2,
					"material":0
				}
			]
		},
		{
			"name":"Cyclops_Glasses_BezierCurve.002",
			"primitives":[
				{
					"attributes":{
						"POSITION":3,
						"NORMAL":4,
						"TEXCOORD_0":5
					},
					"indices":6,
					"material":1
				},
				{
					"attributes":{
						"POSITION":7,
						"NORMAL":8,
						"TEXCOORD_0":9
					},
					"indices":10,
					"material":2
				}
			]
		},
		{
			"name":"Cube.001",
			"primitives":[
				{
					"attributes":{
						"POSITION":11,
						"NORMAL":12,
						"TEXCOORD_0":13
					},
					"indices":14
				}
			]
		},
		{
			"name":"Cyclops_Glasses_BezierCurve.001",
			"primitives":[
				{
					"attributes":{
						"POSITION":15,
						"NORMAL":16,
						"TEXCOORD_0":17
					},
					"indices":18,
					"material":2
				}
			]
		},
		{
			"name":"Body_Plane",
			"primitives":[
				{
					"attributes":{
						"POSITION":19,
						"NORMAL":20,
						"TEXCOORD_0":21
					},
					"indices":22,
					"material":3
				}
			]
		},
		{
			"name":"Lens_Plane.002",
			"primitives":[
				{
					"attributes":{
						"POSITION":23,
						"NORMAL":24,
						"TEXCOORD_0":25
					},
					"indices":26,
					"material":4
				}
			]
		},
		{
			"name":"Cube.003",
			"primitives":[
				{
					"attributes":{
						"POSITION":27,
						"NORMAL":28,
						"TEXCOORD_0":29
					},
					"indices":14
				}
			]
		},
		{
			"name":"ChamferBox001",
			"primitives":[
				{
					"attributes":{
						"POSITION":30,
						"NORMAL":31,
						"TEXCOORD_0":32
					},
					"indices":33,
					"material":5
				}
			]
		},
		{
			"name":"Plane002",
			"primitives":[
				{
					"attributes":{
						"POSITION":34,
						"NORMAL":35,
						"TEXCOORD_0":36
					},
					"indices":37,
					"material":5
				}
			]
		},
		{
			"name":"Plane003",
			"primitives":[
				{
					"attributes":{
						"POSITION":38,
						"NORMAL":39,
						"TEXCOORD_0":40
					},
					"indices":41,
					"material":6
				}
			]
		},
		{
			"name":"ChamferBox001.001",
			"primitives":[
				{
					"attributes":{
						"POSITION":42,
						"NORMAL":43,
						"TEXCOORD_0":44
					},
					"indices":33,
					"material":7
				}
			]
		}
	],
	"accessors":[
		{
			"bufferView":0,
			"componentType":5126,
			"count":27270,
			"max":[
				0.31602907180786133,
				0.44576406478881836,
				0.18609127402305603
			],
			"min":[
				-0.303779661655426,
				-0.5525903701782227,
				-0.20802722871303558
			],
			"type":"VEC3"
		},
		{
			"bufferView":1,
			"componentType":5126,
			"count":27270,
			"type":"VEC3"
		},
		{
			"bufferView":2,
			"componentType":5123,
			"count":163656,
			"type":"SCALAR"
		},
		{
			"bufferView":3,
			"componentType":5126,
			"count":1901,
			"max":[
				0.02111799269914627,
				0.13607916235923767,
				0.024244336411356926
			],
			"min":[
				-0.05002161115407944,
				-0.13607916235923767,
				-0.02401566319167614
			],
			"type":"VEC3"
		},
		{
			"bufferView":4,
			"componentType":5126,
			"count":1901,
			"type":"VEC3"
		},
		{
			"bufferView":5,
			"componentType":5126,
			"count":1901,
			"type":"VEC2"
		},
		{
			"bufferView":6,
			"componentType":5123,
			"count":10218,
			"type":"SCALAR"
		},
		{
			"bufferView":7,
			"componentType":5126,
			"count":281,
			"max":[
				0.016502991318702698,
				0.12287653237581253,
				0.015752336010336876
			],
			"min":[
				-0.026407606899738312,
				-0.12287653237581253,
				-0.015501663088798523
			],
			"type":"VEC3"
		},
		{
			"bufferView":8,
			"componentType":5126,
			"count":281,
			"type":"VEC3"
		},
		{
			"bufferView":9,
			"componentType":5126,
			"count":281,
			"type":"VEC2"
		},
		{
			"bufferView":10,
			"componentType":5123,
			"count":1056,
			"type":"SCALAR"
		},
		{
			"bufferView":11,
			"componentType":5126,
			"count":2832,
			"max":[
				48.20795440673828,
				0.9999961853027344,
				128.14112854003906
			],
			"min":[
				-43.39180374145508,
				-1.0000228881835938,
				-61.61351013183594
			],
			"type":"VEC3"
		},
		{
			"bufferView":12,
			"componentType":5126,
			"count":2832,
			"type":"VEC3"
		},
		{
			"bufferView":13,
			"componentType":5126,
			"count":2832,
			"type":"VEC2"
		},
		{
			"bufferView":14,
			"componentType":5123,
			"count":4248,
			"type":"SCALAR"
		},
		{
			"bufferView":15,
			"componentType":5126,
			"count":350,
			"max":[
				0.016326993703842163,
				0.1226830706000328,
				0.015626335516572
			],
			"min":[
				-0.022628724575042725,
				-0.1226830706000328,
				-0.015364662744104862
			],
			"type":"VEC3"
		},
		{
			"bufferView":16,
			"componentType":5126,
			"count":350,
			"type":"VEC3"
		},
		{
			"bufferView":17,
			"componentType":5126,
			"count":350,
			"type":"VEC2"
		},
		{
			"bufferView":18,
			"componentType":5123,
			"count":1704,
			"type":"SCALAR"
		},
		{
			"bufferView":19,
			"componentType":5126,
			"count":16602,
			"max":[
				0.06971299648284912,
				-0.00019099999917671084,
				-0.014585000462830067
			],
			"min":[
				-0.06971299648284912,
				-0.14472900331020355,
				-0.04930099844932556
			],
			"type":"VEC3"
		},
		{
			"bufferView":20,
			"componentType":5126,
			"count":16602,
			"type":"VEC3"
		},
		{
			"bufferView":21,
			"componentType":5126,
			"count":16602,
			"type":"VEC2"
		},
		{
			"bufferView":22,
			"componentType":5123,
			"count":86340,
			"type":"SCALAR"
		},
		{
			"bufferView":23,
			"componentType":5126,
			"count":4628,
			"max":[
				0.05985400080680847,
				-0.0010969999711960554,
				-0.0001900000061141327
			],
			"min":[
				-0.059891000390052795,
				-0.00610300013795495,
				-0.04598600044846535
			],
			"type":"VEC3"
		},
		{
			"bufferView":24,
			"componentType":5126,
			"count":4628,
			"type":"VEC3"
		},
		{
			"bufferView":25,
			"componentType":5126,
			"count":4628,
			"type":"VEC2"
		},
		{
			"bufferView":26,
			"componentType":5123,
			"count":26496,
			"type":"SCALAR"
		},
		{
			"bufferView":27,
			"componentType":5126,
			"count":2832,
			"max":[
				48.20795440673828,
				0.9999961853027344,
				128.14112854003906
			],
			"min":[
				-43.39180374145508,
				-1.0000228881835938,
				-61.61351013183594
			],
			"type":"VEC3"
		},
		{
			"bufferView":28,
			"componentType":5126,
			"count":2832,
			"type":"VEC3"
		},
		{
			"bufferView":29,
			"componentType":5126,
			"count":2832,
			"type":"VEC2"
		},
		{
			"bufferView":30,
			"componentType":5126,
			"count":138,
			"max":[
				123.74749755859375,
				668.74169921875,
				223.4654998779297
			],
			"min":[
				-781.24609375,
				540.872802734375,
				-19.790700912475586
			],
			"type":"VEC3"
		},
		{
			"bufferView":31,
			"componentType":5126,
			"count":138,
			"type":"VEC3"
		},
		{
			"bufferView":32,
			"componentType":5126,
			"count":138,
			"type":"VEC2"
		},
		{
			"bufferView":33,
			"componentType":5123,
			"count":612,
			"type":"SCALAR"
		},
		{
			"bufferView":34,
			"componentType":5126,
			"count":2146,
			"max":[
				-614.7744750976562,
				818.1533813476562,
				498.60980224609375
			],
			"min":[
				-1188.4913330078125,
				-1434.137939453125,
				-292.1610107421875
			],
			"type":"VEC3"
		},
		{
			"bufferView":35,
			"componentType":5126,
			"count":2146,
			"type":"VEC3"
		},
		{
			"bufferView":36,
			"componentType":5126,
			"count":2146,
			"type":"VEC2"
		},
		{
			"bufferView":37,
			"componentType":5123,
			"count":12864,
			"type":"SCALAR"
		},
		{
			"bufferView":38,
			"componentType":5126,
			"count":1656,
			"max":[
				-230.2279052734375,
				666.689697265625,
				481.6003112792969
			],
			"min":[
				-1163.8302001953125,
				-1267.60205078125,
				-313.7301025390625
			],
			"type":"VEC3"
		},
		{
			"bufferView":39,
			"componentType":5126,
			"count":1656,
			"type":"VEC3"
		},
		{
			"bufferView":40,
			"componentType":5126,
			"count":1656,
			"type":"VEC2"
		},
		{
			"bufferView":41,
			"componentType":5123,
			"count":9924,
			"type":"SCALAR"
		},
		{
			"bufferView":42,
			"componentType":5126,
			"count":138,
			"max":[
				123.74749755859375,
				668.74169921875,
				223.4654998779297
			],
			"min":[
				-781.24609375,
				540.872802734375,
				-19.790700912475586
			],
			"type":"VEC3"
		},
		{
			"bufferView":43,
			"componentType":5126,
			"count":138,
			"type":"VEC3"
		},
		{
			"bufferView":44,
			"componentType":5126,
			"count":138,
			"type":"VEC2"
		}
	],
	"bufferViews":[
		{
			"buffer":0,
			"byteLength":327240,
			"byteOffset":0,
			"target":34962
		},
		{
			"buffer":0,
			"byteLength":327240,
			"byteOffset":327240,
			"target":34962
		},
		{
			"buffer":0,
			"byteLength":327312,
			"byteOffset":654480,
			"target":34963
		},
		{
			"buffer":0,
			"byteLength":22812,
			"byteOffset":981792,
			"target":34962
		},
		{
			"buffer":0,
			"byteLength":22812,
			"byteOffset":1004604,
			"target":34962
		},
		{
			"buffer":0,
			"byteLength":15208,
			"byteOffset":1027416,
			"target":34962
		},
		{
			"buffer":0,
			"byteLength":20436,
			"byteOffset":1042624,
			"target":34963
		},
		{
			"buffer":0,
			"byteLength":3372,
			"byteOffset":1063060,
			"target":34962
		},
		{
			"buffer":0,
			"byteLength":3372,
			"byteOffset":1066432,
			"target":34962
		},
		{
			"buffer":0,
			"byteLength":2248,
			"byteOffset":1069804,
			"target":34962
		},
		{
			"buffer":0,
			"byteLength":2112,
			"byteOffset":1072052,
			"target":34963
		},
		{
			"buffer":0,
			"byteLength":33984,
			"byteOffset":1074164,
			"target":34962
		},
		{
			"buffer":0,
			"byteLength":33984,
			"byteOffset":1108148,
			"target":34962
		},
		{
			"buffer":0,
			"byteLength":22656,
			"byteOffset":1142132,
			"target":34962
		},
		{
			"buffer":0,
			"byteLength":8496,
			"byteOffset":1164788,
			"target":34963
		},
		{
			"buffer":0,
			"byteLength":4200,
			"byteOffset":1173284,
			"target":34962
		},
		{
			"buffer":0,
			"byteLength":4200,
			"byteOffset":1177484,
			"target":34962
		},
		{
			"buffer":0,
			"byteLength":2800,
			"byteOffset":1181684,
			"target":34962
		},
		{
			"buffer":0,
			"byteLength":3408,
			"byteOffset":1184484,
			"target":34963
		},
		{
			"buffer":0,
			"byteLength":199224,
			"byteOffset":1187892,
			"target":34962
		},
		{
			"buffer":0,
			"byteLength":199224,
			"byteOffset":1387116,
			"target":34962
		},
		{
			"buffer":0,
			"byteLength":132816,
			"byteOffset":1586340,
			"target":34962
		},
		{
			"buffer":0,
			"byteLength":172680,
			"byteOffset":1719156,
			"target":34963
		},
		{
			"buffer":0,
			"byteLength":55536,
			"byteOffset":1891836,
			"target":34962
		},
		{
			"buffer":0,
			"byteLength":55536,
			"byteOffset":1947372,
			"target":34962
		},
		{
			"buffer":0,
			"byteLength":37024,
			"byteOffset":2002908,
			"target":34962
		},
		{
			"buffer":0,
			"byteLength":52992,
			"byteOffset":2039932,
			"target":34963
		},
		{
			"buffer":0,
			"byteLength":33984,
			"byteOffset":2092924,
			"target":34962
		},
		{
			"buffer":0,
			"byteLength":33984,
			"byteOffset":2126908,
			"target":34962
		},
		{
			"buffer":0,
			"byteLength":22656,
			"byteOffset":2160892,
			"target":34962
		},
		{
			"buffer":0,
			"byteLength":1656,
			"byteOffset":2183548,
			"target":34962
		},
		{
			"buffer":0,
			"byteLength":1656,
			"byteOffset":2185204,
			"target":34962
		},
		{
			"buffer":0,
			"byteLength":1104,
			"byteOffset":2186860,
			"target":34962
		},
		{
			"buffer":0,
			"byteLength":1224,
			"byteOffset":2187964,
			"target":34963
		},
		{
			"buffer":0,
			"byteLength":25752,
			"byteOffset":2189188,
			"target":34962
		},
		{
			"buffer":0,
			"byteLength":25752,
			"byteOffset":2214940,
			"target":34962
		},
		{
			"buffer":0,
			"byteLength":17168,
			"byteOffset":2240692,
			"target":34962
		},
		{
			"buffer":0,
			"byteLength":25728,
			"byteOffset":2257860,
			"target":34963
		},
		{
			"buffer":0,
			"byteLength":19872,
			"byteOffset":2283588,
			"target":34962
		},
		{
			"buffer":0,
			"byteLength":19872,
			"byteOffset":2303460,
			"target":34962
		},
		{
			"buffer":0,
			"byteLength":13248,
			"byteOffset":2323332,
			"target":34962
		},
		{
			"buffer":0,
			"byteLength":19848,
			"byteOffset":2336580,
			"target":34963
		},
		{
			"buffer":0,
			"byteLength":1656,
			"byteOffset":2356428,
			"target":34962
		},
		{
			"buffer":0,
			"byteLength":1656,
			"byteOffset":2358084,
			"target":34962
		},
		{
			"buffer":0,
			"byteLength":1104,
			"byteOffset":2359740,
			"target":34962
		}
	],
	"buffers":[
		{
			"byteLength":2360844,
			"uri":"genie_go.bin"
		}
	]
}
