{
	"asset":{
		"generator":"Khronos glTF Blender I/O v4.5.47",
		"version":"2.0"
	},
	"extensionsUsed":[
		"KHR_materials_specular"
	],
	"scene":0,
	"scenes":[
		{
			"name":"Scene",
			"nodes":[
				0,
				1,
				2,
				3
			]
		}
	],
	"nodes":[
		{
			"mesh":0,
			"name":"genie_body_1"
		},
		{
			"mesh":1,
			"name":"goggle_frame_1",
			"rotation":[
				0.4835418164730072,
				-0.5159334540367126,
				0.5159333944320679,
				0.4835418462753296
			],
			"scale":[
				0.9295315146446228,
				0.9295315146446228,
				0.9295313954353333
			],
			"translation":[
				-0.004031545482575893,
				0.17156386375427246,
				0.12109522521495819
			]
		},
		{
			"mesh":2,
			"name":"belt_1",
			"rotation":[
				1,
				0,
				0,
				0
			],
			"scale":[
				0.003491889452561736,
				0.005319593008607626,
				0.0014267123769968748
			],
			"translation":[
				-0.0026224253233522177,
				0.17268484830856323,
				-0.001476471545174718
			]
		},
		{
			"mesh":3,
			"name":"goggle_outer_frame_1",
			"rotation":[
				0.4835418164730072,
				-0.5159334540367126,
				0.5159333944320679,
				0.4835418462753296
			],
			"scale":[
				0.9295315146446228,
				0.9295315146446228,
				0.9295313954353333
			],
			"translation":[
				-0.004031545482575893,
				0.17156386375427246,
				0.12109522521495819
			]
		}
	],
	"materials":[
		{
			"name":"Material_0",
			"pbrMetallicRoughness":{
				"metallicFactor":0.20000000298023224,
				"roughnessFactor":0.5
			}
		},
		{
			"doubleSided":true,
			"extensions":{
				"KHR_materials_specular":{
					"specularFactor":0
				}
			},
			"name":"frame",
			"pbrMetallicRoughness":{
				"baseColorFactor":[
					0.800000011920929,
					0.800000011920929,
					0.800000011920929,
					1
				],
				"metallicFactor":0
			}
		},
		{
			"doubleSided":true,
			"extensions":{
				"KHR_materials_specular":{
					"specularFactor":0
				}
			},
			"name":"glass",
			"pbrMetallicRoughness":{
				"baseColorFactor":[
					0.800000011920929,
					0.800000011920929,
					0.800000011920929,
					1
				],
				"metallicFactor":0
			}
		}
	],
	"meshes":[
		{
			"name":"mesh",
			"primitives":[
				{
					"attributes":{
						"POSITION":0,
						"NORMAL":1
					},
					"indices":2,
					"material":0
				}
			]
		},
		{
			"name":"Cyclops_Glasses_BezierCurve.002",
			"primitives":[
				{
					"attributes":{
						"POSITION":3,
						"NORMAL":4,
						"TEXCOORD_0":5
					},
					"indices":6,
					"material":1
				},
				{
					"attributes":{
						"POSITION":7,
						"NORMAL":8,
						"TEXCOORD_0":9
					},
					"indices":10,
					"material":2
				}
			]
		},
		{
			"name":"Cube.001",
			"primitives":[
				{
					"attributes":{
						"POSITION":11,
						"NORMAL":12,
						"TEXCOORD_0":13
					},
					"indices":14
				}
			]
		},
		{
			"name":"Cyclops_Glasses_BezierCurve.001",
			"primitives":[
				{
					"attributes":{
						"POSITION":15,
						"NORMAL":16,
						"TEXCOORD_0":17
					},
					"indices":18,
					"material":2
				}
			]
		}
	],
	"accessors":[
		{
			"bufferView":0,
			"componentType":5126,
			"count":27270,
			"max":[
				0.31602907180786133,
				0.44576406478881836,
				0.18609127402305603
			],
			"min":[
				-0.303779661655426,
				-0.5525903701782227,
				-0.20802722871303558
			],
			"type":"VEC3"
		},
		{
			"bufferView":1,
			"componentType":5126,
			"count":27270,
			"type":"VEC3"
		},
		{
			"bufferView":2,
			"componentType":5123,
			"count":163656,
			"type":"SCALAR"
		},
		{
			"bufferView":3,
			"componentType":5126,
			"count":1901,
			"max":[
				0.02111799269914627,
				0.13607916235923767,
				0.024244336411356926
			],
			"min":[
				-0.05002161115407944,
				-0.13607916235923767,
				-0.02401566319167614
			],
			"type":"VEC3"
		},
		{
			"bufferView":4,
			"componentType":5126,
			"count":1901,
			"type":"VEC3"
		},
		{
			"bufferView":5,
			"componentType":5126,
			"count":1901,
			"type":"VEC2"
		},
		{
			"bufferView":6,
			"componentType":5123,
			"count":10218,
			"type":"SCALAR"
		},
		{
			"bufferView":7,
			"componentType":5126,
			"count":281,
			"max":[
				0.016502991318702698,
				0.12287653237581253,
				0.015752336010336876
			],
			"min":[
				-0.026407606899738312,
				-0.12287653237581253,
				-0.015501663088798523
			],
			"type":"VEC3"
		},
		{
			"bufferView":8,
			"componentType":5126,
			"count":281,
			"type":"VEC3"
		},
		{
			"bufferView":9,
			"componentType":5126,
			"count":281,
			"type":"VEC2"
		},
		{
			"bufferView":10,
			"componentType":5123,
			"count":1056,
			"type":"SCALAR"
		},
		{
			"bufferView":11,
			"componentType":5126,
			"count":2832,
			"max":[
				48.20795440673828,
				0.9999961853027344,
				128.14112854003906
			],
			"min":[
				-43.39180374145508,
				-1.0000228881835938,
				-61.61351013183594
			],
			"type":"VEC3"
		},
		{
			"bufferView":12,
			"componentType":5126,
			"count":2832,
			"type":"VEC3"
		},
		{
			"bufferView":13,
			"componentType":5126,
			"count":2832,
			"type":"VEC2"
		},
		{
			"bufferView":14,
			"componentType":5123,
			"count":4248,
			"type":"SCALAR"
		},
		{
			"bufferView":15,
			"componentType":5126,
			"count":350,
			"max":[
				0.016326993703842163,
				0.1226830706000328,
				0.015626335516572
			],
			"min":[
				-0.022628724575042725,
				-0.1226830706000328,
				-0.015364662744104862
			],
			"type":"VEC3"
		},
		{
			"bufferView":16,
			"componentType":5126,
			"count":350,
			"type":"VEC3"
		},
		{
			"bufferView":17,
			"componentType":5126,
			"count":350,
			"type":"VEC2"
		},
		{
			"bufferView":18,
			"componentType":5123,
			"count":1704,
			"type":"SCALAR"
		}
	],
	"bufferViews":[
		{
			"buffer":0,
			"byteLength":327240,
			"byteOffset":0,
			"target":34962
		},
		{
			"buffer":0,
			"byteLength":327240,
			"byteOffset":327240,
			"target":34962
		},
		{
			"buffer":0,
			"byteLength":327312,
			"byteOffset":654480,
			"target":34963
		},
		{
			"buffer":0,
			"byteLength":22812,
			"byteOffset":981792,
			"target":34962
		},
		{
			"buffer":0,
			"byteLength":22812,
			"byteOffset":1004604,
			"target":34962
		},
		{
			"buffer":0,
			"byteLength":15208,
			"byteOffset":1027416,
			"target":34962
		},
		{
			"buffer":0,
			"byteLength":20436,
			"byteOffset":1042624,
			"target":34963
		},
		{
			"buffer":0,
			"byteLength":3372,
			"byteOffset":1063060,
			"target":34962
		},
		{
			"buffer":0,
			"byteLength":3372,
			"byteOffset":1066432,
			"target":34962
		},
		{
			"buffer":0,
			"byteLength":2248,
			"byteOffset":1069804,
			"target":34962
		},
		{
			"buffer":0,
			"byteLength":2112,
			"byteOffset":1072052,
			"target":34963
		},
		{
			"buffer":0,
			"byteLength":33984,
			"byteOffset":1074164,
			"target":34962
		},
		{
			"buffer":0,
			"byteLength":33984,
			"byteOffset":1108148,
			"target":34962
		},
		{
			"buffer":0,
			"byteLength":22656,
			"byteOffset":1142132,
			"target":34962
		},
		{
			"buffer":0,
			"byteLength":8496,
			"byteOffset":1164788,
			"target":34963
		},
		{
			"buffer":0,
			"byteLength":4200,
			"byteOffset":1173284,
			"target":34962
		},
		{
			"buffer":0,
			"byteLength":4200,
			"byteOffset":1177484,
			"target":34962
		},
		{
			"buffer":0,
			"byteLength":2800,
			"byteOffset":1181684,
			"target":34962
		},
		{
			"buffer":0,
			"byteLength":3408,
			"byteOffset":1184484,
			"target":34963
		}
	],
	"buffers":[
		{
			"byteLength":1187892,
			"uri":"model_genie_1.bin"
		}
	]
}
